<mxfile host="app.diagrams.net" modified="2023-08-25T13:54:48.898Z" agent="Mozilla/5.0 (X11; Linux x86_64; rv:109.0) Gecko/20100101 Firefox/112.0" etag="j5mtSxkbdemds317v2Tg" version="21.6.8" type="github">
  <diagram name="Página-1" id="e8Y94bpIWY_KRqioBiPK">
    <mxGraphModel dx="1274" dy="649" grid="1" gridSize="10" guides="1" tooltips="1" connect="1" arrows="1" fold="1" page="1" pageScale="1" pageWidth="827" pageHeight="1169" math="0" shadow="0">
      <root>
        <mxCell id="0" />
        <mxCell id="1" parent="0" />
        <mxCell id="oHgQnNF6T3Y_pkvfkI70-1" value="Berçario" style="swimlane;whiteSpace=wrap;html=1;" vertex="1" parent="1">
          <mxGeometry x="80" y="40" width="120" height="110" as="geometry" />
        </mxCell>
        <mxCell id="oHgQnNF6T3Y_pkvfkI70-2" value="" style="endArrow=none;html=1;rounded=0;" edge="1" parent="1">
          <mxGeometry width="50" height="50" relative="1" as="geometry">
            <mxPoint x="200" y="100" as="sourcePoint" />
            <mxPoint x="260" y="100" as="targetPoint" />
          </mxGeometry>
        </mxCell>
        <mxCell id="oHgQnNF6T3Y_pkvfkI70-3" value="ter" style="rhombus;whiteSpace=wrap;html=1;" vertex="1" parent="1">
          <mxGeometry x="260" y="60" width="80" height="80" as="geometry" />
        </mxCell>
        <mxCell id="oHgQnNF6T3Y_pkvfkI70-4" value="" style="endArrow=none;html=1;rounded=0;" edge="1" parent="1">
          <mxGeometry width="50" height="50" relative="1" as="geometry">
            <mxPoint x="340" y="100" as="sourcePoint" />
            <mxPoint x="400" y="100" as="targetPoint" />
          </mxGeometry>
        </mxCell>
        <mxCell id="oHgQnNF6T3Y_pkvfkI70-5" value="1" style="text;html=1;align=center;verticalAlign=middle;resizable=0;points=[];autosize=1;strokeColor=none;fillColor=none;" vertex="1" parent="1">
          <mxGeometry x="215" y="68" width="30" height="30" as="geometry" />
        </mxCell>
        <mxCell id="oHgQnNF6T3Y_pkvfkI70-6" value="N" style="text;html=1;align=center;verticalAlign=middle;resizable=0;points=[];autosize=1;strokeColor=none;fillColor=none;" vertex="1" parent="1">
          <mxGeometry x="355" y="68" width="30" height="30" as="geometry" />
        </mxCell>
        <mxCell id="oHgQnNF6T3Y_pkvfkI70-7" value="Bebê" style="swimlane;whiteSpace=wrap;html=1;" vertex="1" parent="1">
          <mxGeometry x="400" y="40" width="125" height="130" as="geometry" />
        </mxCell>
        <mxCell id="oHgQnNF6T3Y_pkvfkI70-9" value="Data de nascimento" style="text;html=1;align=center;verticalAlign=middle;resizable=0;points=[];autosize=1;strokeColor=none;fillColor=none;" vertex="1" parent="oHgQnNF6T3Y_pkvfkI70-7">
          <mxGeometry x="-5" y="50" width="130" height="30" as="geometry" />
        </mxCell>
        <mxCell id="oHgQnNF6T3Y_pkvfkI70-10" value="Peso" style="text;html=1;align=center;verticalAlign=middle;resizable=0;points=[];autosize=1;strokeColor=none;fillColor=none;" vertex="1" parent="1">
          <mxGeometry x="425" y="108" width="50" height="30" as="geometry" />
        </mxCell>
        <mxCell id="oHgQnNF6T3Y_pkvfkI70-11" value="Altura" style="text;html=1;align=center;verticalAlign=middle;resizable=0;points=[];autosize=1;strokeColor=none;fillColor=none;" vertex="1" parent="1">
          <mxGeometry x="425" y="128" width="50" height="30" as="geometry" />
        </mxCell>
        <mxCell id="oHgQnNF6T3Y_pkvfkI70-12" value="Nome" style="text;html=1;align=center;verticalAlign=middle;resizable=0;points=[];autosize=1;strokeColor=none;fillColor=none;" vertex="1" parent="1">
          <mxGeometry x="430" y="68" width="60" height="30" as="geometry" />
        </mxCell>
        <mxCell id="oHgQnNF6T3Y_pkvfkI70-14" value="" style="endArrow=none;html=1;rounded=0;" edge="1" parent="1">
          <mxGeometry width="50" height="50" relative="1" as="geometry">
            <mxPoint x="480" y="240" as="sourcePoint" />
            <mxPoint x="480" y="170" as="targetPoint" />
          </mxGeometry>
        </mxCell>
        <mxCell id="oHgQnNF6T3Y_pkvfkI70-15" value="ter" style="rhombus;whiteSpace=wrap;html=1;" vertex="1" parent="1">
          <mxGeometry x="440" y="240" width="80" height="80" as="geometry" />
        </mxCell>
        <mxCell id="oHgQnNF6T3Y_pkvfkI70-16" value="N" style="text;html=1;align=center;verticalAlign=middle;resizable=0;points=[];autosize=1;strokeColor=none;fillColor=none;" vertex="1" parent="1">
          <mxGeometry x="475" y="188" width="30" height="30" as="geometry" />
        </mxCell>
        <mxCell id="oHgQnNF6T3Y_pkvfkI70-17" value="" style="endArrow=none;html=1;rounded=0;" edge="1" parent="1">
          <mxGeometry width="50" height="50" relative="1" as="geometry">
            <mxPoint x="480" y="400" as="sourcePoint" />
            <mxPoint x="480" y="320" as="targetPoint" />
          </mxGeometry>
        </mxCell>
        <mxCell id="oHgQnNF6T3Y_pkvfkI70-18" value="Mãe" style="swimlane;whiteSpace=wrap;html=1;startSize=23;" vertex="1" parent="1">
          <mxGeometry x="400" y="400" width="145" height="130" as="geometry" />
        </mxCell>
        <mxCell id="oHgQnNF6T3Y_pkvfkI70-19" value="Nome" style="text;html=1;align=center;verticalAlign=middle;resizable=0;points=[];autosize=1;strokeColor=none;fillColor=none;" vertex="1" parent="1">
          <mxGeometry x="440" y="418" width="60" height="30" as="geometry" />
        </mxCell>
        <mxCell id="oHgQnNF6T3Y_pkvfkI70-20" value="Endereço" style="text;html=1;align=center;verticalAlign=middle;resizable=0;points=[];autosize=1;strokeColor=none;fillColor=none;" vertex="1" parent="1">
          <mxGeometry x="435" y="438" width="70" height="30" as="geometry" />
        </mxCell>
        <mxCell id="oHgQnNF6T3Y_pkvfkI70-21" value="Telefone" style="text;html=1;align=center;verticalAlign=middle;resizable=0;points=[];autosize=1;strokeColor=none;fillColor=none;" vertex="1" parent="1">
          <mxGeometry x="435" y="458" width="70" height="30" as="geometry" />
        </mxCell>
        <mxCell id="oHgQnNF6T3Y_pkvfkI70-22" value="Data de nascimento" style="text;html=1;align=center;verticalAlign=middle;resizable=0;points=[];autosize=1;strokeColor=none;fillColor=none;" vertex="1" parent="1">
          <mxGeometry x="405" y="478" width="130" height="30" as="geometry" />
        </mxCell>
        <mxCell id="oHgQnNF6T3Y_pkvfkI70-23" value="1" style="text;html=1;align=center;verticalAlign=middle;resizable=0;points=[];autosize=1;strokeColor=none;fillColor=none;" vertex="1" parent="1">
          <mxGeometry x="485" y="348" width="30" height="30" as="geometry" />
        </mxCell>
        <mxCell id="oHgQnNF6T3Y_pkvfkI70-24" value="" style="endArrow=none;html=1;rounded=0;entryX=0;entryY=0.5;entryDx=0;entryDy=0;" edge="1" parent="1" target="oHgQnNF6T3Y_pkvfkI70-15">
          <mxGeometry width="50" height="50" relative="1" as="geometry">
            <mxPoint x="360" y="280" as="sourcePoint" />
            <mxPoint x="440" y="320" as="targetPoint" />
          </mxGeometry>
        </mxCell>
        <mxCell id="oHgQnNF6T3Y_pkvfkI70-25" value="Médico" style="swimlane;whiteSpace=wrap;html=1;startSize=23;" vertex="1" parent="1">
          <mxGeometry x="210" y="220" width="150" height="150" as="geometry" />
        </mxCell>
        <mxCell id="oHgQnNF6T3Y_pkvfkI70-26" value="1" style="text;html=1;align=center;verticalAlign=middle;resizable=0;points=[];autosize=1;strokeColor=none;fillColor=none;" vertex="1" parent="1">
          <mxGeometry x="385" y="248" width="30" height="30" as="geometry" />
        </mxCell>
        <mxCell id="oHgQnNF6T3Y_pkvfkI70-27" value="CRM" style="text;html=1;align=center;verticalAlign=middle;resizable=0;points=[];autosize=1;strokeColor=none;fillColor=none;" vertex="1" parent="1">
          <mxGeometry x="255" y="238" width="50" height="30" as="geometry" />
        </mxCell>
        <mxCell id="oHgQnNF6T3Y_pkvfkI70-28" value="Nome" style="text;html=1;align=center;verticalAlign=middle;resizable=0;points=[];autosize=1;strokeColor=none;fillColor=none;" vertex="1" parent="1">
          <mxGeometry x="250" y="268" width="60" height="30" as="geometry" />
        </mxCell>
        <mxCell id="oHgQnNF6T3Y_pkvfkI70-29" value="Telefone" style="text;html=1;align=center;verticalAlign=middle;resizable=0;points=[];autosize=1;strokeColor=none;fillColor=none;" vertex="1" parent="1">
          <mxGeometry x="245" y="298" width="70" height="30" as="geometry" />
        </mxCell>
        <mxCell id="oHgQnNF6T3Y_pkvfkI70-30" value="Especialidade" style="text;html=1;align=center;verticalAlign=middle;resizable=0;points=[];autosize=1;strokeColor=none;fillColor=none;" vertex="1" parent="1">
          <mxGeometry x="230" y="328" width="100" height="30" as="geometry" />
        </mxCell>
      </root>
    </mxGraphModel>
  </diagram>
</mxfile>
